<?xml version="1.0" standalone="no"?>
<!DOCTYPE svg PUBLIC "-//W3C//DTD SVG 20010904//EN"
 "http://www.w3.org/TR/2001/REC-SVG-20010904/DTD/svg10.dtd">
<svg version="1.0" xmlns="http://www.w3.org/2000/svg"
 width="218.000000pt" height="218.000000pt" viewBox="0 0 218.000000 218.000000"
 preserveAspectRatio="xMidYMid meet">
<metadata>
Created by potrace 1.11, written by Peter Selinger 2001-2013
</metadata>
<g transform="translate(0.000000,218.000000) scale(0.100000,-0.100000)"
fill="#000000" stroke="none">
<path d="M1004 1839 c-38 -34 -98 -91 -134 -125 -36 -34 -75 -71 -87 -81 -12
-11 -97 -92 -190 -180 -92 -89 -184 -176 -203 -194 -45 -41 -215 -203 -302
-287 -37 -35 -71 -61 -76 -58 -5 3 -9 -3 -8 -13 0 -10 23 -37 50 -60 l49 -42
31 28 c100 92 177 163 306 284 80 75 165 156 190 179 25 23 107 101 184 173
185 176 247 232 257 232 4 0 58 -47 120 -105 61 -58 124 -116 138 -129 14 -13
96 -90 181 -171 85 -81 171 -162 190 -180 19 -18 87 -81 150 -140 63 -59 131
-121 151 -138 l35 -31 47 37 c25 20 46 41 47 46 0 5 -101 108 -225 229 l-225
219 0 214 0 214 -100 0 -99 0 -3 -120 -3 -119 -85 81 c-91 86 -223 212 -282
266 l-35 33 -69 -62z"/>
<path d="M980 1464 c-87 -79 -123 -112 -435 -410 -99 -94 -195 -184 -212 -199
l-33 -27 0 -379 0 -379 305 0 305 0 0 320 0 320 160 0 160 0 0 -320 0 -320
305 0 305 0 0 377 0 377 -52 48 c-28 27 -116 110 -196 186 -80 75 -161 152
-181 171 -20 18 -70 65 -111 105 -190 180 -219 206 -227 206 -5 0 -47 -34 -93
-76z m-220 -914 l0 -150 -150 0 -150 0 0 150 0 150 150 0 150 0 0 -150z m920
5 l0 -145 -150 0 -150 0 0 145 0 145 150 0 150 0 0 -145z"/>
</g>
</svg>
